# xmcd CD database file
#
# Track frame offsets:
#	150
#	14195
#	29527
#	44833
#	63190
#	81169
#	96405
#	112683
#	131641
#	148659
#	162755
#	182021
#	204730
#	223124
#	240321
#	259746
#	274059
#	286180
#	303031
#	318222
#	331026
#
# Disc length: 4638 seconds
#
# Revision: 0
# Processed by: cddbd v1.5.2PL0 Copyright (c) Steve Scherf et al.
# Submitted via: CDex 1.51
#
DISCID=2e121c15
DTITLE=Various Artist - 04
DYEAR=2007
DGENRE=Country
TTITLE0=Watermelon Crawl
TTITLE1=Dancing Cowboy
TTITLE2=Ain't Found Nobody
TTITLE3=Whose Bed Have Your Boots Been Under?
TTITLE4=Man! I Feel Like A Woman!
TTITLE5=Honky Tonk Truth
TTITLE6=Party For Two
TTITLE7=Any Man Of Mine
TTITLE8=Redneck Woman
TTITLE9=I've Got Feelin' For You
TTITLE10=Bump In The Dark
TTITLE11=Jumbalaya
TTITLE12=Podunk
TTITLE13=XXL
TTITLE14=Three Chord Country And American Rock and Roll
TTITLE15=Oklahoma Swing
TTITLE16=Waltz Across Texas
TTITLE17=What Do You Wanna Make Those Eyes At Me For
TTITLE18=Cadillac Cowboy
TTITLE19=Two Feet Of Topsoil
TTITLE20=Honky Tonk Badonkadonk
EXTD=YEAR: 2007
EXTT0=
EXTT1=
EXTT2=
EXTT3=
EXTT4=
EXTT5=
EXTT6=
EXTT7=
EXTT8=
EXTT9=
EXTT10=
EXTT11=
EXTT12=
EXTT13=
EXTT14=
EXTT15=
EXTT16=
EXTT17=
EXTT18=
EXTT19=
EXTT20=
PLAYORDER=
